<?xml version="1.0" encoding="UTF-8"?>
<svg version="1.1" xmlns="http://www.w3.org/2000/svg" width="2442" height="1721">
<path d="M0 0 C1.4413385 0.17925654 2.88274723 0.35794914 4.32421875 0.53613281 C70.72819938 8.83992032 135.31197604 26.72723637 196 55 C197.12776855 55.52207031 198.25553711 56.04414062 199.41748047 56.58203125 C214.40235481 63.54799574 228.9640522 71.03555808 243.22802734 79.37939453 C246.00581352 81.00339882 248.79321454 82.60987119 251.58203125 84.21484375 C264.40416954 91.64073603 276.78915109 99.61024973 289 108 C290.12680176 108.77126221 290.12680176 108.77126221 291.27636719 109.55810547 C306.4153838 119.95645103 320.90625968 131.22733561 335 143 C335.50305664 143.41813965 336.00611328 143.8362793 336.52441406 144.26708984 C343.97569554 150.46744276 351.20863464 156.85312757 358.30883789 163.45239258 C359.57621913 164.61219186 360.85620564 165.75824206 362.14233398 166.8972168 C368.67235253 172.68920207 374.89356419 178.73917299 381.05102539 184.9206543 C382.69239796 186.56741404 384.33908819 188.20872095 385.98632812 189.84960938 C391.53565056 195.3954328 396.90448917 201.03072437 402 207 C403.61967817 208.77570221 405.24411718 210.54708307 406.875 212.3125 C411.79560371 217.71478931 416.42982766 223.30028913 421 229 C421.93587212 230.15521193 422.87208689 231.31014633 423.80859375 232.46484375 C442.16659948 255.16618812 459.04102729 278.9172283 474 304 C474.46712402 304.78262207 474.93424805 305.56524414 475.41552734 306.37158203 C510.02469484 364.65876913 510.02469484 364.65876913 505.3515625 383.6328125 C501.42842189 393.25624288 495.00927214 398.51809644 485.76953125 402.87109375 C476.61995495 406.60061075 466.91288683 405.84324251 457.73046875 402.55859375 C449.4878325 397.85356962 445.30434034 391.85559087 441.25 383.4375 C440.21003084 381.36893737 439.1683207 379.30124924 438.125 377.234375 C437.60421875 376.19087891 437.0834375 375.14738281 436.546875 374.07226562 C424.79531379 350.73235933 411.18103313 328.26526042 396 307 C394.96477744 305.53129674 393.92962417 304.06254463 392.89453125 302.59375 C386.09747058 293.00998646 378.95182813 283.79263523 371.44873047 274.75292969 C369.38005961 272.24988676 367.35017785 269.71579624 365.3125 267.1875 C361.54395302 262.58226644 357.59211696 258.17126466 353.5546875 253.80078125 C351.59569147 251.65307459 349.6868254 249.4830833 347.78930664 247.28222656 C344.27562092 243.26264533 340.5966782 239.45146075 336.81640625 235.68359375 C336.15720688 235.02343765 335.49800751 234.36328156 334.8188324 233.68312073 C333.43603165 232.29964494 332.05198924 230.91740917 330.66674805 229.53637695 C328.56769657 227.44268331 326.4740406 225.34370126 324.38085938 223.24414062 C323.02636214 221.89030429 321.67155469 220.53677825 320.31640625 219.18359375 C319.70156876 218.56673203 319.08673126 217.9498703 318.45326233 217.3143158 C314.12961805 213.01348335 309.62184671 208.97673034 305 205 C303.91699189 204.05059233 302.83478279 203.1002712 301.75390625 202.1484375 C293.46998922 194.923522 284.8840979 188.17866635 276.09521484 181.58056641 C274.1217445 180.09184035 272.16248923 178.58648735 270.20703125 177.07421875 C195.02832791 119.25725949 104.11578954 83.12229547 -82 63 C-82.94294922 63.01788574 -83.88589844 63.03577148 -84.85742188 63.05419922 C-174.56541411 65.05322247 -264.34767395 88.0710863 -429 188 C-430.00289062 188.79921875 -431.00578125 189.5984375 -432.0390625 190.421875 C-449.22451798 204.31218415 -465.35363193 219.28574538 -481 234.875 C-482.32668701 236.19467773 -482.32668701 236.19467773 -483.68017578 237.54101562 C-488.65804728 242.53118284 -493.44632753 247.61890111 -498 253 C-495.09058017 255.26949953 -492.10539313 257.17557044 -488.90625 259.01171875 C-487.89046875 259.59630859 -486.8746875 260.18089844 -485.828125 260.78320312 C-484.72984375 261.41162109 -483.6315625 262.04003906 -482.5 262.6875 C-481.33842574 263.35461591 -480.17696971 264.0219377 -479.015625 264.68945312 C-475.34614182 266.79715474 -471.67351441 268.89933389 -468 271 C-467.41105957 271.33678772 -466.82211914 271.67357544 -466.21533203 272.02056885 C-460.96703284 275.02128865 -455.71754623 278.01992713 -450.46679688 281.01635742 C-441.55809083 286.10156169 -432.67069748 291.2231371 -423.7890625 296.35546875 C-415.87266209 300.92704623 -407.9399247 305.46946933 -400 310 C-389.91408633 315.75503458 -379.84736534 321.54245848 -369.79345703 327.35327148 C-361.2457544 332.29011685 -352.67489713 337.18567842 -344.09976196 342.07461548 C-334.94054522 347.29854122 -325.82437935 352.59289755 -316.72607422 357.92211914 C-309.07351207 362.39556212 -301.36567484 366.76469273 -293.63891602 371.10839844 C-286.76026159 374.98346558 -279.93447919 378.94230944 -273.125 382.9375 C-264.82397515 387.80649423 -256.46987028 392.56706737 -248.0625 397.25 C-240.56116117 401.42832972 -233.10303037 405.65835243 -225.72070312 410.04321289 C-219.04387732 413.99905781 -212.30441191 417.84409796 -205.5625 421.6875 C-196.36075525 426.9339449 -187.17065088 432.19928099 -178 437.5 C-168.38494042 443.05732129 -158.74742069 448.57420115 -149.09976196 454.07461548 C-139.94054522 459.29854122 -130.82437935 464.59289755 -121.72607422 469.92211914 C-114.07351207 474.39556212 -106.36567484 478.76469273 -98.63891602 483.10839844 C-91.76026159 486.98346558 -84.93447919 490.94230944 -78.125 494.9375 C-69.82397515 499.80649423 -61.46987028 504.56706737 -53.0625 509.25 C-45.56116117 513.42832972 -38.10303037 517.65835243 -30.72070312 522.04321289 C-24.04387732 525.99905781 -17.30441191 529.84409796 -10.5625 533.6875 C-1.36075525 538.9339449 7.82934912 544.19928099 17 549.5 C26.61505958 555.05732129 36.25257931 560.57420115 45.90023804 566.07461548 C55.05945478 571.29854122 64.17562065 576.59289755 73.27392578 581.92211914 C80.92648793 586.39556212 88.63432516 590.76469273 96.36108398 595.10839844 C103.23973841 598.98346558 110.06552081 602.94230944 116.875 606.9375 C125.17602485 611.80649423 133.53012972 616.56706737 141.9375 621.25 C149.421001 625.41839385 156.86270688 629.63640483 164.2265625 634.01245117 C171.41818409 638.27463679 178.67842955 642.41671564 185.9375 646.5625 C186.57080231 646.92446472 187.20410461 647.28642944 187.8565979 647.65936279 C194.36250815 651.45225344 194.36250815 651.45225344 201 655 C201 554.35 201 453.7 201 350 C221.79 350 242.58 350 264 350 C264 490.25 264 630.5 264 775 C260.28770017 773.51508007 257.09399307 772.03192692 253.640625 770.09375 C252.10450562 769.23342163 252.10450562 769.23342163 250.53735352 768.35571289 C249.45252686 767.74332764 248.3677002 767.13094238 247.25 766.5 C246.12327881 765.86634521 244.99655762 765.23269043 243.83569336 764.57983398 C237.04482257 760.74999436 230.29015254 756.86664399 223.5847168 752.8894043 C217.27275475 749.14695337 210.92058399 745.47596521 204.5625 741.8125 C202.90166382 740.85549194 202.90166382 740.85549194 201.20727539 739.87915039 C198.93662932 738.57110523 196.66587642 737.26324552 194.39501953 735.95556641 C188.9283002 732.80667946 183.46425113 729.65316736 178 726.5 C175.83334689 725.2499765 173.66668021 723.99997653 171.5 722.75 C141.16666667 705.25 110.83333333 687.75 80.5 670.25 C79.42733887 669.63116943 78.35467773 669.01233887 77.24951172 668.37475586 C75.08442929 667.12564482 72.91939018 665.87645871 70.75439453 664.62719727 C65.31384294 661.48797691 59.87252784 658.35009437 54.4296875 655.21484375 C43.97793801 649.19252671 33.53700452 643.15330663 23.125 637.0625 C13.85436069 631.64041301 4.54063301 626.29675988 -4.79046631 620.97976685 C-13.86778636 615.80621213 -22.90571533 610.56857846 -31.921875 605.2890625 C-39.58573974 600.80833735 -47.28685835 596.39505776 -55 592 C-64.72124506 586.46014067 -74.40894868 580.86625068 -84.06689453 575.21655273 C-94.59084625 569.06233258 -105.15380137 562.97630004 -115.71777344 556.89111328 C-121.14659942 553.76319852 -126.57319281 550.63141552 -132 547.5 C-134.16665583 546.24998121 -136.3333225 544.99998122 -138.5 543.75 C-238.16666667 486.25 -337.83333333 428.75 -437.5 371.25 C-438.57266113 370.63116943 -439.64532227 370.01233887 -440.75048828 369.37475586 C-442.91557071 368.12564482 -445.08060982 366.87645871 -447.24560547 365.62719727 C-452.68615706 362.48797691 -458.12747216 359.35009437 -463.5703125 356.21484375 C-474.02206309 350.19252608 -484.46291003 344.15316169 -494.875 338.0625 C-503.86770122 332.80450958 -512.89268627 327.60513362 -521.9375 322.4375 C-522.52859558 322.09961456 -523.11969116 321.76172913 -523.72869873 321.41360474 C-530.46222479 317.56602693 -537.20853311 313.74447851 -544 310 C-544.23976563 310.68964844 -544.47953125 311.37929688 -544.7265625 312.08984375 C-546.23467171 315.53628965 -548.2412382 318.48644441 -550.375 321.5625 C-561.33582547 337.7217618 -570.90066251 354.73710409 -580 372 C-580.48968262 372.92731934 -580.97936523 373.85463867 -581.48388672 374.81005859 C-611.8730879 432.81305419 -630.92711656 497.22557256 -639.1875 562.0625 C-639.3424292 563.26632324 -639.4973584 564.47014648 -639.65698242 565.71044922 C-642.38785502 588.2382899 -643.38010105 610.69068988 -643.3125 633.375 C-643.31034485 634.68593628 -643.3081897 635.99687256 -643.30596924 637.34753418 C-643.25922988 658.3740128 -642.65067926 679.13598966 -640 700 C-639.90289734 700.77529053 -639.80579468 701.55058105 -639.70574951 702.34936523 C-630.17144817 777.85997312 -606.95812002 851.62623033 -568.46972656 917.47802734 C-567.13749281 919.76406964 -565.82639218 922.06047132 -564.5234375 924.36328125 C-550.6636998 948.66833148 -534.31232144 971.72482452 -516.453125 993.24267578 C-514.36384079 995.76933367 -512.31028732 998.32467907 -510.25 1000.875 C-506.66360764 1005.25617894 -502.93132137 1009.48039317 -499.1171875 1013.6640625 C-497.20919797 1015.76918748 -495.34952931 1017.90613634 -493.5 1020.0625 C-490.23508276 1023.81866636 -486.72810947 1027.29052962 -483.18359375 1030.78125 C-481.20789518 1032.78875767 -479.3772707 1034.84789545 -477.5625 1037 C-474.15344973 1040.97854359 -470.34139467 1044.38118113 -466.4140625 1047.83984375 C-464.32436954 1049.70974699 -462.33664403 1051.62304821 -460.375 1053.625 C-456.75500301 1057.29515861 -452.91020233 1060.64384914 -449 1064 C-447.99168947 1064.88354655 -446.98391726 1065.76770766 -445.9765625 1066.65234375 C-437.62626286 1073.94616969 -428.97330104 1080.75497002 -420.10839844 1087.41064453 C-418.09662211 1088.9271642 -416.0975154 1090.45883495 -414.1015625 1091.99609375 C-386.06283578 1113.49054884 -355.58198238 1131.3010041 -324 1147 C-323.00194336 1147.50225098 -322.00388672 1148.00450195 -320.97558594 1148.52197266 C-257.12917253 1180.57605687 -185.17281378 1199.1269797 -114 1204 C-112.73043457 1204.08757568 -111.46086914 1204.17515137 -110.15283203 1204.26538086 C-97.85262016 1205.05855129 -85.57300903 1205.20094192 -73.25 1205.1875 C-72.21953552 1205.18689575 -71.18907104 1205.1862915 -70.12738037 1205.18566895 C-53.00405176 1205.15854105 -36.05058092 1204.69974638 -19 1203 C-17.70594238 1202.87109375 -16.41188477 1202.7421875 -15.07861328 1202.609375 C32.27633167 1197.76474239 78.18619429 1187.01198595 123 1171 C124.051875 1170.62633301 125.10375 1170.25266602 126.1875 1169.86767578 C140.76389662 1164.63929451 154.90731038 1158.40368889 169 1152 C170.37720215 1151.37738281 170.37720215 1151.37738281 171.78222656 1150.7421875 C184.97555646 1144.74302026 197.61046464 1137.95017881 210.13574219 1130.66455078 C212.94080805 1129.03439914 215.75493651 1127.4208558 218.5703125 1125.80859375 C244.57037793 1110.80713705 268.95441055 1093.20876363 292 1074 C292.57975586 1073.51934082 293.15951172 1073.03868164 293.75683594 1072.54345703 C301.18638187 1066.37629526 308.38865266 1060.00054082 315.45996094 1053.42675781 C317.06323259 1051.94141863 318.67509444 1050.46589292 320.2890625 1048.9921875 C330.4894861 1039.83817059 330.4894861 1039.83817059 340 1030 C340 1029.34 340 1028.68 340 1028 C339.36835937 1027.64921387 338.73671875 1027.29842773 338.0859375 1026.93701172 C325.39137915 1019.87863607 312.75808557 1012.73599656 300.22753906 1005.38964844 C292.59590093 1000.91951226 284.93204621 996.50775948 277.25 992.125 C276.66701141 991.79230103 276.08402283 991.45960205 275.48336792 991.11682129 C271.32313452 988.74298665 267.16171494 986.37123606 263 984 C258.24917803 981.29310621 253.49892823 978.585215 248.75 975.875 C248.16807892 975.54295563 247.58615784 975.21091125 246.98660278 974.86880493 C237.86587103 969.66223464 228.78767948 964.38551973 219.72558594 959.07763672 C212.07463681 954.60502893 204.36816881 950.23717482 196.64331055 945.89379883 C188.7065871 941.4220716 180.83990494 936.83632204 172.98046875 932.23046875 C165.24411224 927.70505139 157.45286273 923.28424117 149.64013672 918.89233398 C142.76111502 915.01695257 135.93488878 911.05793087 129.125 907.0625 C120.82397515 902.19350577 112.46987028 897.43293263 104.0625 892.75 C96.56116117 888.57167028 89.10303037 884.34164757 81.72070312 879.95678711 C75.04387732 876.00094219 68.30441191 872.15590204 61.5625 868.3125 C52.36075525 863.0660551 43.17065088 857.80071901 34 852.5 C24.38494042 846.94267871 14.74742069 841.42579885 5.09976196 835.92538452 C-4.05945478 830.70145878 -13.17562065 825.40710245 -22.27392578 820.07788086 C-29.92507849 815.60526179 -37.6316725 811.23726405 -45.35668945 806.89379883 C-53.2934129 802.4220716 -61.16009506 797.83632204 -69.01953125 793.23046875 C-76.75588776 788.70505139 -84.54713727 784.28424117 -92.35986328 779.89233398 C-99.23888498 776.01695257 -106.06511122 772.05793087 -112.875 768.0625 C-121.17602485 763.19350577 -129.53012972 758.43293263 -137.9375 753.75 C-145.43883883 749.57167028 -152.89696963 745.34164757 -160.27929688 740.95678711 C-166.95612268 737.00094219 -173.69558809 733.15590204 -180.4375 729.3125 C-189.63924475 724.0660551 -198.82934912 718.80071901 -208 713.5 C-217.61505958 707.94267871 -227.25257931 702.42579885 -236.90023804 696.92538452 C-246.05945478 691.70145878 -255.17562065 686.40710245 -264.27392578 681.07788086 C-271.92648793 676.60443788 -279.63432516 672.23530727 -287.36108398 667.89160156 C-295.24319526 663.45124033 -303.05230549 658.89249902 -310.85473633 654.31396484 C-319.23340604 649.41260326 -327.68986802 644.65822252 -336.18896484 639.96899414 C-343.61865404 635.84864499 -350.74191228 631.46651552 -358 627 C-358.33 727.65 -358.66 828.3 -359 932 C-379.79 932 -400.58 932 -422 932 C-422 791.75 -422 651.5 -422 507 C-418.9135218 508.23459128 -416.26074518 509.31214541 -413.41796875 510.890625 C-412.74636719 511.26276123 -412.07476563 511.63489746 -411.3828125 512.01831055 C-410.29613281 512.62799683 -410.29613281 512.62799683 -409.1875 513.25 C-408.01767578 513.90319214 -408.01767578 513.90319214 -406.82421875 514.56958008 C-398.26646158 519.37245415 -389.80382282 524.33793988 -381.3359375 529.296875 C-374.94718008 533.03634589 -368.53883924 536.74125034 -362.125 540.4375 C-361.04541016 541.05971436 -359.96582031 541.68192871 -358.85351562 542.32299805 C-356.6631748 543.58511517 -354.47274498 544.84707785 -352.28222656 546.10888672 C-346.85340058 549.23680148 -341.42680719 552.36858448 -336 555.5 C-333.83334417 556.75001879 -331.6666775 558.00001878 -329.5 559.25 C-238.5 611.75 -147.5 664.25 -56.5 716.75 C-55.42733887 717.36883057 -54.35467773 717.98766113 -53.24951172 718.62524414 C-51.08442929 719.87435518 -48.91939018 721.12354129 -46.75439453 722.37280273 C-41.31384294 725.51202309 -35.87252784 728.64990563 -30.4296875 731.78515625 C-19.97793801 737.80747329 -9.53700452 743.84669337 0.875 749.9375 C10.14563931 755.35958699 19.45936699 760.70324012 28.79046631 766.02023315 C37.86778636 771.19378787 46.90571533 776.43142154 55.921875 781.7109375 C63.58573974 786.19166265 71.28685835 790.60494224 79 795 C88.72124506 800.53985933 98.40894868 806.13374932 108.06689453 811.78344727 C118.59084625 817.93766742 129.15380137 824.02369996 139.71777344 830.10888672 C145.14659942 833.23680148 150.57319281 836.36858448 156 839.5 C158.16665583 840.75001879 160.3333225 842.00001878 162.5 843.25 C331.50000001 940.75 331.50000001 940.75 334.75366211 942.62719727 C336.9080241 943.87004233 339.06248285 945.11271967 341.21704102 946.35522461 C346.23270964 949.24795937 351.24748231 952.14220746 356.25863647 955.04275513 C358.01658069 956.06017706 359.77484442 957.07704461 361.53320312 958.09375 C363.72654401 959.3621881 365.91929847 960.63164102 368.11132812 961.90234375 C374.68730991 965.70348929 381.3141372 969.39561258 388 973 C392.34529496 966.67481723 396.67855026 960.3414992 401 954 C401.47920898 953.29697754 401.95841797 952.59395508 402.45214844 951.86962891 C415.82075949 932.20206032 428.01326291 911.50231609 438.4375 890.125 C443.97240823 878.86972818 448.5632371 869.54205366 460.8203125 864.94140625 C470.40089132 862.12726756 479.90160583 862.20757457 488.91015625 866.78515625 C496.89909019 871.42919075 502.59320036 876.88233035 505.640625 885.89453125 C506.13614446 888.79762894 506.24998299 891.61761965 506.3125 894.5625 C506.36857422 896.26599609 506.36857422 896.26599609 506.42578125 898.00390625 C505.93464169 907.20323636 500.6970314 916.12738265 496.625 924.1875 C496.10752197 925.21633301 495.59004395 926.24516602 495.05688477 927.30517578 C489.1861326 938.81930105 482.66044155 949.9293456 476 961 C475.49549316 961.84353027 474.99098633 962.68706055 474.47119141 963.55615234 C462.25665306 983.95480115 448.9476237 1003.69320311 434.25634766 1022.39648438 C432.94843073 1024.06581947 431.65137625 1025.74320402 430.35546875 1027.421875 C421.76213366 1038.51239216 412.67830567 1049.15156064 403.23046875 1059.5234375 C401.98809945 1060.90288083 400.75208956 1062.28839604 399.54193115 1063.69618225 C395.1360353 1068.81424044 390.50336762 1073.64277021 385.72265625 1078.41015625 C384.95247665 1079.18129257 384.18229706 1079.95242889 383.38877869 1080.74693298 C381.77058627 1082.36580153 380.15114788 1083.98342551 378.53051758 1085.59985352 C376.06932768 1088.05568718 373.61352191 1090.51681365 371.15820312 1092.97851562 C369.57584133 1094.56021653 367.99316933 1096.14160717 366.41015625 1097.72265625 C365.32384666 1098.81200218 365.32384666 1098.81200218 364.21559143 1099.9233551 C359.63665589 1104.48159885 354.90834778 1108.79977162 350 1113 C348.90571151 1113.94990085 347.81186834 1114.90031532 346.71875 1115.8515625 C331.97156182 1128.58808028 316.82804553 1140.62945741 301 1152 C300.17951172 1152.58958496 299.35902344 1153.17916992 298.51367188 1153.78662109 C228.24683698 1204.06943629 147.83669899 1239.70118407 -16 1270 C-17.78664063 1270.1544458 -17.78664063 1270.1544458 -19.609375 1270.31201172 C-88.34954551 1275.95419636 -158.01535326 1270.37011781 -225 1254 C-226.15145508 1253.71962891 -227.30291016 1253.43925781 -228.48925781 1253.15039062 C-270.43920076 1242.78588331 -311.13988592 1227.84808311 -350 1209 C-351.10714355 1208.46761719 -352.21428711 1207.93523437 -353.35498047 1207.38671875 C-368.4181337 1200.12140441 -382.99075979 1192.23146625 -397.32080078 1183.61083984 C-399.74743948 1182.15184931 -402.18258572 1180.70855467 -404.62109375 1179.26953125 C-423.50254797 1168.03419832 -441.64672493 1155.46885529 -459 1142 C-459.598125 1141.53932129 -460.19625 1141.07864258 -460.8125 1140.60400391 C-468.33944236 1134.80266174 -475.67236633 1128.80851178 -482.89453125 1122.6328125 C-485.84420349 1120.11661783 -488.85470418 1117.68107031 -491.875 1115.25 C-495.55303626 1112.25860148 -498.96301277 1109.16973111 -502.24584961 1105.75317383 C-503.8692568 1104.13067042 -505.5392625 1102.66539726 -507.296875 1101.19140625 C-513.34933669 1095.92996623 -518.95063794 1090.19825522 -524.60913086 1084.52124023 C-526.5579687 1082.56704376 -528.51209272 1080.61824853 -530.46679688 1078.66992188 C-536.52453257 1072.6154238 -542.47343234 1066.55011939 -548 1060 C-549.45445517 1058.39231627 -550.91220895 1056.78760285 -552.375 1055.1875 C-556.21806298 1050.92389983 -559.89322734 1046.55447727 -563.5 1042.08984375 C-565.32003572 1039.84039335 -567.15218882 1037.60526208 -569 1035.37890625 C-576.53548176 1026.26401506 -583.58881502 1016.88433327 -590.41796875 1007.23046875 C-591.95563435 1005.06255009 -593.50707651 1002.90520119 -595.0625 1000.75 C-626.34780316 957.21953276 -650.97261735 909.0292418 -670 859 C-670.65693848 857.28079346 -670.65693848 857.28079346 -671.32714844 855.52685547 C-689.08090032 808.65614411 -700.27012868 759.3339547 -706.25 709.625 C-706.47671387 707.76004883 -706.47671387 707.76004883 -706.70800781 705.85742188 C-709.39217588 682.16645763 -710.38283517 658.45667426 -710.3125 634.625 C-710.31067719 633.32738739 -710.30885437 632.02977478 -710.30697632 630.69284058 C-710.25523192 608.66708655 -709.45715526 586.8888382 -707 565 C-706.9175 564.24960449 -706.835 563.49920898 -706.75 562.72607422 C-697.50933217 479.15134188 -671.69973603 396.85182578 -620 306 C-619.44038574 305.0733252 -618.88077148 304.14665039 -618.30419922 303.19189453 C-611.24491429 291.52472127 -603.89889458 280.11586965 -596 269 C-595.484375 268.27184082 -594.96875 267.54368164 -594.4375 266.79345703 C-587.23101119 256.63984344 -579.81212195 246.69537396 -572 237 C-571.25363281 236.07058594 -570.50726562 235.14117187 -569.73828125 234.18359375 C-560.37509443 222.63510301 -550.63554015 211.46170736 -540.48681641 200.60009766 C-539.01604221 199.01726447 -537.55877052 197.42309661 -536.10546875 195.82421875 C-526.59783386 185.38274127 -516.8793535 174.91053365 -506.07421875 165.79296875 C-503.78927565 163.81784845 -501.58668665 161.76835276 -499.38037109 159.70629883 C-494.08248741 154.75758343 -488.70539025 149.99529132 -483.046875 145.45703125 C-480.74471342 143.60054454 -478.46817659 141.72504376 -476.203125 139.82421875 C-460.57644263 126.73529774 -444.18695909 115.00791063 -427.25 103.6875 C-426.55688721 103.22327637 -425.86377441 102.75905273 -425.1496582 102.28076172 C-415.59788809 95.89481808 -405.90926567 89.81528673 -396 84 C-394.61167969 83.18390259 -394.61167969 83.18390259 -393.1953125 82.35131836 C-359.2416225 62.53072001 -323.97557089 46.29627952 -287 33 C-286.36316284 32.77074829 -285.72632568 32.54149658 -285.07019043 32.30529785 C-240.13093014 16.19170008 -193.49402426 5.78884081 -146.10498047 0.25 C-144.10123662 0.01202346 -142.09937203 -0.24162137 -140.09765625 -0.49609375 C-94.71066415 -6.11720536 -45.3375578 -5.87751188 0 0 Z " fill="#6E4371" transform="translate(1323,3)"/>
<path d="M0 0 C3.0864782 1.23459128 5.73925482 2.31214541 8.58203125 3.890625 C9.58943359 4.44882935 9.58943359 4.44882935 10.6171875 5.01831055 C11.34164062 5.42476807 12.06609375 5.83122559 12.8125 6.25 C13.59238281 6.68546143 14.37226562 7.12092285 15.17578125 7.56958008 C23.73353842 12.37245415 32.19617718 17.33793988 40.6640625 22.296875 C47.05281992 26.03634589 53.46116076 29.74125034 59.875 33.4375 C60.95458984 34.05971436 62.03417969 34.68192871 63.14648438 35.32299805 C65.3368252 36.58511517 67.52725502 37.84707785 69.71777344 39.10888672 C75.14659942 42.23680148 80.57319281 45.36858448 86 48.5 C88.16665583 49.75001879 90.3333225 51.00001878 92.5 52.25 C229 131 229 131 365.5 209.75 C366.57266113 210.36883057 367.64532227 210.98766113 368.75048828 211.62524414 C370.91557071 212.87435518 373.08060982 214.12354129 375.24560547 215.37280273 C380.68615706 218.51202309 386.12747216 221.64990563 391.5703125 224.78515625 C402.02206199 230.80747329 412.46299548 236.84669337 422.875 242.9375 C432.14563931 248.35958699 441.45936699 253.70324012 450.79046631 259.02023315 C459.86778636 264.19378787 468.90571533 269.43142154 477.921875 274.7109375 C485.58573974 279.19166265 493.28685835 283.60494224 501 288 C510.72124506 293.53985933 520.40894868 299.13374932 530.06689453 304.78344727 C540.59084625 310.93766742 551.15380137 317.02369996 561.71777344 323.10888672 C567.14659942 326.23680148 572.57319281 329.36858448 578 332.5 C580.16665583 333.75001879 582.3333225 335.00001878 584.5 336.25 C640.83333333 368.75 697.16666667 401.25 753.5 433.75 C754.5737085 434.36939453 755.64741699 434.98878906 756.75366211 435.62695312 C758.90830624 436.870123 761.06276757 438.11360975 763.21704102 439.35742188 C768.22754121 442.24983147 773.23962635 445.13935227 778.25863647 448.01696777 C780.01728749 449.02548314 781.77533209 450.0350477 783.53320312 451.04492188 C785.72472231 452.30350518 787.91734504 453.56016987 790.11132812 454.81445312 C796.86272402 458.69531332 803.46591135 462.76358632 810 467 C807.5761858 471.13020742 804.85587845 474.88416814 801.875 478.625 C801.38854004 479.23891602 800.90208008 479.85283203 800.40087891 480.48535156 C798.9381657 482.32700354 797.47017741 484.16430328 796 486 C795.2059375 486.99257813 794.411875 487.98515625 793.59375 489.0078125 C789.25732301 494.3672698 784.77163542 499.55287117 780.1328125 504.65234375 C778.15078395 506.83402719 776.19304246 509.03358577 774.25 511.25 C773.68925781 511.88292969 773.12851563 512.51585937 772.55078125 513.16796875 C770.98601189 514.9659314 770.98601189 514.9659314 769.66796875 516.86328125 C768.4375 518.5625 768.4375 518.5625 766 521 C761.4185961 520.7410302 758.19353744 519.25664996 754.2734375 516.96484375 C753.17354492 516.32853027 752.07365234 515.6922168 750.94042969 515.03662109 C749.75189429 514.33701401 748.56341937 513.63730417 747.375 512.9375 C746.12979086 512.21339319 744.8840119 511.49026545 743.63769531 510.76806641 C741.04697903 509.26590722 738.45876775 507.75955622 735.87207031 506.25048828 C732.18452407 504.10278257 728.48235574 501.98163565 724.7734375 499.87109375 C724.19022232 499.53920044 723.60700714 499.20730713 723.00611877 498.86535645 C721.83677433 498.20009872 720.66738675 497.53491683 719.49795532 496.86981201 C709.19958551 491.00871141 698.95020574 485.06643892 688.72558594 479.07763672 C681.07463681 474.60502893 673.36816881 470.23717482 665.64331055 465.89379883 C657.7065871 461.4220716 649.83990494 456.83632204 641.98046875 452.23046875 C635.18825023 448.25732925 628.35906287 444.35646353 621.5 440.5 C612.60647499 435.49967335 603.78301448 430.38901107 594.98046875 425.23046875 C587.24411224 420.70505139 579.45286273 416.28424117 571.64013672 411.89233398 C564.76111502 408.01695257 557.93488878 404.05793087 551.125 400.0625 C542.82397515 395.19350577 534.46987028 390.43293263 526.0625 385.75 C518.56116117 381.57167028 511.10303037 377.34164757 503.72070312 372.95678711 C497.04387732 369.00094219 490.30441191 365.15590204 483.5625 361.3125 C474.36075525 356.0660551 465.17065088 350.80071901 456 345.5 C446.38494042 339.94267871 436.74742069 334.42579885 427.09976196 328.92538452 C417.94054522 323.70145878 408.82437935 318.40710245 399.72607422 313.07788086 C392.07492151 308.60526179 384.3683275 304.23726405 376.64331055 299.89379883 C368.7065871 295.4220716 360.83990494 290.83632204 352.98046875 286.23046875 C345.24411224 281.70505139 337.45286273 277.28424117 329.64013672 272.89233398 C322.76111502 269.01695257 315.93488878 265.05793087 309.125 261.0625 C300.82397515 256.19350577 292.46987028 251.43293263 284.0625 246.75 C276.56116117 242.57167028 269.10303037 238.34164757 261.72070312 233.95678711 C255.04387732 230.00094219 248.30441191 226.15590204 241.5625 222.3125 C232.36075525 217.0660551 223.17065088 211.80071901 214 206.5 C204.38494042 200.94267871 194.74742069 195.42579885 185.09976196 189.92538452 C175.94054522 184.70145878 166.82437935 179.40710245 157.72607422 174.07788086 C150.07351207 169.60443788 142.36567484 165.23530727 134.63891602 160.89160156 C126.75680474 156.45124033 118.94769451 151.89249902 111.14526367 147.31396484 C102.76659396 142.41260326 94.31013198 137.65822252 85.81103516 132.96899414 C78.38134596 128.84864499 71.25808772 124.46651552 64 120 C63.67 220.65 63.34 321.3 63 425 C42.21 425 21.42 425 0 425 C0 284.75 0 144.5 0 0 Z " fill="#FE9565" transform="translate(901,510)"/>
<path d="M0 0 C4.11401529 0.59426224 7.04662594 1.95217183 10.62890625 4.03515625 C11.73186035 4.67138916 12.83481445 5.30762207 13.97119141 5.96313477 C15.16833434 6.66285463 16.36543607 7.36264499 17.5625 8.0625 C18.81386328 8.787115 20.06566152 9.51097933 21.31787109 10.23413086 C23.9204548 11.73785829 26.52113416 13.24480544 29.12060547 14.75390625 C35.10328059 18.22296669 41.11625213 21.63888654 47.125 25.0625 C57.17145293 30.79641112 67.195769 36.56819524 77.21142578 42.35571289 C85.12762875 46.92726918 93.06023314 51.46955939 101 56 C111.08591367 61.75503458 121.15263466 67.54245848 131.20654297 73.35327148 C139.7542456 78.29011685 148.32510287 83.18567842 156.90023804 88.07461548 C166.05945478 93.29854122 175.17562065 98.59289755 184.27392578 103.92211914 C191.92648793 108.39556212 199.63432516 112.76469273 207.36108398 117.10839844 C214.23973841 120.98346558 221.06552081 124.94230944 227.875 128.9375 C236.17602485 133.80649423 244.53012972 138.56706737 252.9375 143.25 C260.43883883 147.42832972 267.89696963 151.65835243 275.27929688 156.04321289 C281.95612268 159.99905781 288.69558809 163.84409796 295.4375 167.6875 C304.63924475 172.9339449 313.82934912 178.19928099 323 183.5 C332.61505958 189.05732129 342.25257931 194.57420115 351.90023804 200.07461548 C361.05945478 205.29854122 370.17562065 210.59289755 379.27392578 215.92211914 C386.92648793 220.39556212 394.63432516 224.76469273 402.36108398 229.10839844 C409.23973841 232.98346558 416.06552081 236.94230944 422.875 240.9375 C431.17602485 245.80649423 439.53012972 250.56706737 447.9375 255.25 C455.43883883 259.42832972 462.89696963 263.65835243 470.27929688 268.04321289 C476.95612268 271.99905781 483.69558809 275.84409796 490.4375 279.6875 C499.63924475 284.9339449 508.82934912 290.19928099 518 295.5 C527.61505958 301.05732129 537.25257931 306.57420115 546.90023804 312.07461548 C556.05945478 317.29854122 565.17562065 322.59289755 574.27392578 327.92211914 C581.92648793 332.39556212 589.63432516 336.76469273 597.36108398 341.10839844 C604.23973841 344.98346558 611.06552081 348.94230944 617.875 352.9375 C626.17602485 357.80649423 634.53012972 362.56706737 642.9375 367.25 C650.421001 371.41839385 657.86270688 375.63640483 665.2265625 380.01245117 C672.41818409 384.27463679 679.67842955 388.41671564 686.9375 392.5625 C687.57080231 392.92446472 688.20410461 393.28642944 688.8565979 393.65936279 C695.36250815 397.45225344 695.36250815 397.45225344 702 401 C702 300.35 702 199.7 702 96 C722.79 96 743.58 96 765 96 C765 236.25 765 376.5 765 521 C761.28770017 519.51508007 758.09399307 518.03192692 754.640625 516.09375 C753.10450562 515.23342163 753.10450562 515.23342163 751.53735352 514.35571289 C750.45252686 513.74332764 749.3677002 513.13094238 748.25 512.5 C747.12327881 511.86634521 745.99655762 511.23269043 744.83569336 510.57983398 C738.04482257 506.74999436 731.29015254 502.86664399 724.5847168 498.8894043 C718.27275475 495.14695337 711.92058399 491.47596521 705.5625 487.8125 C703.90166382 486.85549194 703.90166382 486.85549194 702.20727539 485.87915039 C699.93662932 484.57110523 697.66587642 483.26324552 695.39501953 481.95556641 C689.9283002 478.80667946 684.46425113 475.65316736 679 472.5 C676.83334689 471.2499765 674.66668021 469.99997653 672.5 468.75 C642.16666667 451.25 611.83333333 433.75 581.5 416.25 C580.42733887 415.63116943 579.35467773 415.01233887 578.24951172 414.37475586 C576.08442929 413.12564482 573.91939018 411.87645871 571.75439453 410.62719727 C566.31384294 407.48797691 560.87252784 404.35009437 555.4296875 401.21484375 C544.97793801 395.19252671 534.53700452 389.15330663 524.125 383.0625 C514.85436069 377.64041301 505.54063301 372.29675988 496.20953369 366.97976685 C487.13221364 361.80621213 478.09428467 356.56857846 469.078125 351.2890625 C461.41426026 346.80833735 453.71314165 342.39505776 446 338 C436.27875494 332.46014067 426.59105132 326.86625068 416.93310547 321.21655273 C406.40915375 315.06233258 395.84619863 308.97630004 385.28222656 302.89111328 C379.85340058 299.76319852 374.42680719 296.63141552 369 293.5 C366.83334417 292.24998121 364.6666775 290.99998122 362.5 289.75 C262.83333333 232.25 163.16666667 174.75 63.5 117.25 C62.42733887 116.63116943 61.35467773 116.01233887 60.24951172 115.37475586 C58.08442929 114.12564482 55.91939018 112.87645871 53.75439453 111.62719727 C48.31384294 108.48797691 42.87252784 105.35009437 37.4296875 102.21484375 C26.00386852 95.63126611 14.59593015 89.0191523 3.21435547 82.359375 C-2.32308775 79.1256179 -7.875245 75.91931176 -13.4453125 72.7421875 C-14.07500946 72.38299728 -14.70470642 72.02380707 -15.35348511 71.6537323 C-18.42127119 69.90485931 -21.49064083 68.15882898 -24.56201172 66.41625977 C-30.4574776 63.06258993 -36.28300043 59.65019212 -42 56 C-40.51408979 51.68684441 -38.23179702 48.21546619 -35.5625 44.5625 C-35.12365479 43.95559326 -34.68480957 43.34868652 -34.23266602 42.72338867 C-23.4819925 27.97043154 -11.70219545 13.99865969 0 0 Z " fill="#FE9565" transform="translate(822,257)"/>
<path d="M0 0 C2.37823785 0.00315159 4.75521619 -0.02036597 7.13330078 -0.0456543 C20.88291243 -0.1033989 34.35324183 1.47467749 47.39501953 6.06567383 C48.51094482 6.45082153 48.51094482 6.45082153 49.64941406 6.84375 C73.14149083 15.24822119 91.43137748 31.78110956 102.93017578 53.72192383 C108.26623806 65.40394252 112.04099258 78.49749074 113.14501953 91.31567383 C112.14501953 92.31567383 112.14501953 92.31567383 108.91040039 92.42919922 C107.47687827 92.42904014 106.04335041 92.4233479 104.60986328 92.41333008 C103.47998741 92.41120766 103.47998741 92.41120766 102.32728577 92.40904236 C99.91232393 92.40342759 97.49745352 92.39087266 95.08251953 92.37817383 C93.44905732 92.37316073 91.81559367 92.36859749 90.18212891 92.36450195 C86.16972368 92.35345337 82.15738713 92.33617889 78.14501953 92.31567383 C77.92040039 91.17485352 77.69578125 90.0340332 77.46435547 88.85864258 C73.75285203 70.34565909 66.31719448 55.32269097 50.34326172 44.49121094 C35.62617592 35.01251676 20.00121848 31.77325069 2.64501953 31.94067383 C1.44232422 31.92907227 0.23962891 31.9174707 -0.99951172 31.90551758 C-14.10896994 31.94776073 -26.0624389 34.58471905 -37.85498047 40.31567383 C-38.83080078 40.78489258 -39.80662109 41.25411133 -40.81201172 41.73754883 C-54.26932452 48.86304604 -63.82111749 59.98658741 -70.85498047 73.31567383 C-71.556875 74.63438477 -71.556875 74.63438477 -72.27294922 75.97973633 C-74.92041206 81.37241448 -76.80214119 86.95492582 -78.54248047 92.69067383 C-78.74510498 93.34970703 -78.94772949 94.00874023 -79.15649414 94.68774414 C-82.27210168 105.47603891 -83.22421371 116.37544788 -83.16748047 127.56567383 C-83.16184082 128.74444092 -83.15620117 129.92320801 -83.15039062 131.13769531 C-82.80602482 156.02920586 -75.61670507 180.43839175 -58.85498047 199.31567383 C-58.26330078 200.00145508 -57.67162109 200.68723633 -57.06201172 201.39379883 C-44.66291495 214.82395056 -25.69699638 223.33845306 -7.52148438 224.53515625 C-3.77562799 224.65606392 -0.04027829 224.69562811 3.70751953 224.69067383 C4.36943298 224.69046234 5.03134644 224.69025085 5.71331787 224.69003296 C16.36045359 224.65611055 26.05160502 223.76331204 36.14501953 220.31567383 C37.20978516 219.96504883 38.27455078 219.61442383 39.37158203 219.25317383 C54.69067001 213.55304807 66.95261801 203.12991489 74.45751953 188.62817383 C74.77116455 188.02996826 75.08480957 187.4317627 75.40795898 186.81542969 C78.80594624 179.79316503 80.05212259 173.16403736 82.14501953 165.31567383 C93.69501953 165.31567383 105.24501953 165.31567383 117.14501953 165.31567383 C112.83128979 193.35491714 100.8003754 218.65978819 77.60595703 236.04614258 C56.7221989 250.92862944 32.7385578 256.70156034 7.3449707 256.63134766 C4.97771493 256.62820068 2.6117303 256.65169718 0.24462891 256.67700195 C-27.41274684 256.79188853 -53.38517509 249.17144635 -74.85498047 231.31567383 C-76.16402344 230.23479492 -76.16402344 230.23479492 -77.49951172 229.13208008 C-100.54742276 209.27051618 -114.59706644 178.34775536 -117.85498047 148.31567383 C-118.26830597 141.75976688 -118.29412157 135.19489496 -118.29248047 128.62817383 C-118.29354797 127.72237579 -118.29461548 126.81657776 -118.29571533 125.8833313 C-118.27020498 110.86584821 -117.15570636 96.79706892 -112.85498047 82.31567383 C-112.63036133 81.55657715 -112.40574219 80.79748047 -112.17431641 80.01538086 C-104.02970168 53.73803219 -87.37214881 30.7795663 -63.85498047 16.31567383 C-63.28827637 15.96375977 -62.72157227 15.6118457 -62.13769531 15.24926758 C-43.17255458 3.70943454 -21.93476553 -0.06049425 0 0 Z " fill="#6E4371" transform="translate(117.85498046875,1464.684326171875)"/>
<path d="M0 0 C14.52 0 29.04 0 44 0 C55.67109052 14.74610838 55.67109052 14.74610838 57.95703125 21.24609375 C60.47774033 27.96548376 63.64879617 33.75638344 67.625 39.75 C68.6800751 41.42748294 69.72953929 43.1085077 70.7734375 44.79296875 C71.29776367 45.63520996 71.82208984 46.47745117 72.36230469 47.34521484 C75.37132917 52.22299245 78.30863492 57.14373052 81.25 62.0625 C86.59449761 70.99787514 91.9675345 79.91513957 97.375 88.8125 C97.72714569 89.39202423 98.07929138 89.97154846 98.44210815 90.56863403 C100.59641408 94.113731 102.75158178 97.65830341 104.90704346 101.20269775 C108.21010061 106.63437944 111.51197549 112.066779 114.8125 117.5 C115.17100037 118.09011871 115.52950073 118.68023743 115.89886475 119.28823853 C120.76364322 127.29766119 125.601733 135.32253632 130.41455078 143.36328125 C136.44524072 153.42865927 142.54811391 163.450362 148.64338684 173.47669983 C151.29326316 177.83590153 153.94025687 182.19684453 156.5859375 186.55859375 C157.34349788 187.80729651 158.10106616 189.05599447 158.85864258 190.3046875 C160.27808924 192.64432637 161.69714523 194.98420059 163.1159668 197.32421875 C164.4183139 199.47035586 165.72348843 201.61478022 167.03173828 203.75732422 C168.42544349 206.05342848 169.80301986 208.35519679 171.16748047 210.66845703 C171.88113678 211.8636355 172.59483984 213.05878606 173.30859375 214.25390625 C174.26270142 215.86954468 174.26270142 215.86954468 175.23608398 217.51782227 C176.8238274 220.26912565 176.8238274 220.26912565 180 221 C180 148.07 180 75.14 180 0 C188.25 0 196.5 0 205 0 C205 80.52 205 161.04 205 244 C190.48 244 175.96 244 161 244 C154.81996578 234.11194526 148.66365611 224.22293206 142.625 214.25 C141.8828534 213.02601686 141.14066513 211.802059 140.3984375 210.578125 C135.77213459 202.94544298 131.17113177 195.29782304 126.5871582 187.63964844 C122.35562867 180.57689018 118.08731836 173.53660747 113.8125 166.5 C113.27576157 165.61646851 113.27576157 165.61646851 112.72817993 164.71508789 C110.15286852 160.47627017 107.57654125 156.23807026 105 152 C102.06181909 147.16708024 99.1240594 142.33390522 96.1875 137.5 C95.82927155 136.91033447 95.47104309 136.32066895 95.10195923 135.71313477 C90.23690736 127.70325362 85.39854114 119.67792168 80.58544922 111.63671875 C76.35440126 104.5749899 72.08673148 97.53564144 67.8125 90.5 C67.27576157 89.61646851 67.27576157 89.61646851 66.72817993 88.71508789 C64.15286852 84.47627017 61.57654125 80.23807026 59 76 C56.06181908 71.16708021 53.12416157 66.33384317 50.1875 61.5 C49.83425659 60.91864288 49.48101318 60.33728577 49.11706543 59.73831177 C43.90597901 51.16049366 38.72194266 42.56684093 33.5769043 33.94921875 C33.13000244 33.2015625 32.68310059 32.45390625 32.22265625 31.68359375 C31.83859619 31.03962646 31.45453613 30.39565918 31.05883789 29.73217773 C28.86627928 25.90727045 28.86627928 25.90727045 25 24 C25 96.6 25 169.2 25 244 C16.75 244 8.5 244 0 244 C0 163.48 0 82.96 0 0 Z " fill="#FE9565" transform="translate(1522,1471)"/>
<path d="M0 0 C2.03867947 -0.00960961 4.07630658 -0.04063893 6.11474609 -0.07226562 C25.47548783 -0.23008539 43.00400375 4.93028956 58.07177734 17.24023438 C58.69181641 17.69785156 59.31185547 18.15546875 59.95068359 18.62695312 C75.59796307 30.71638251 83.72145573 51.25657257 87.32177734 70.05273438 C88.40101387 80.39541774 88.07177734 90.84139546 88.07177734 101.24023438 C41.54177734 101.24023438 -4.98822266 101.24023438 -52.92822266 101.24023438 C-49.727019 120.44745634 -46.69077918 138.35339429 -30.61572266 150.74023438 C-14.35093842 161.38872571 3.32221 162.90240826 22.07177734 159.24023438 C32.85049924 156.65010346 42.29566591 150.56217144 48.75537109 141.49023438 C50.69902475 138.16814384 52.35049439 134.68280028 54.07177734 131.24023438 C64.30177734 131.24023438 74.53177734 131.24023438 85.07177734 131.24023438 C81.53787415 145.37584715 81.53787415 145.37584715 78.44677734 151.36523438 C77.92954102 152.38025024 77.92954102 152.38025024 77.40185547 153.41577148 C74.14892699 159.53691271 70.0933016 164.45867677 65.07177734 169.24023438 C64.43626953 169.871875 63.80076172 170.50351563 63.14599609 171.15429688 C47.11481851 186.22293998 25.81534878 190.68200809 4.50927734 190.61523438 C3.7983493 190.61402588 3.08742126 190.61281738 2.35494995 190.61157227 C-19.32239894 190.51149527 -39.67816079 185.38957903 -55.92822266 170.24023438 C-56.68232422 169.57636719 -57.43642578 168.9125 -58.21337891 168.22851562 C-74.74020775 152.89229881 -83.88552497 129.27486037 -85.10522461 107.0090332 C-85.49157998 86.12891144 -84.88081316 66.52466603 -75.92822266 47.24023438 C-75.43708984 46.17675781 -74.94595703 45.11328125 -74.43994141 44.01757812 C-65.35467516 25.82536242 -50.15382094 11.62248945 -30.984375 4.52001953 C-20.59523961 1.08164122 -10.88875818 0.0308974 0 0 Z M-37.98291016 44.80273438 C-46.15818755 55.04645545 -48.62555762 64.02957422 -51.92822266 77.24023438 C-16.61822266 77.24023438 18.69177734 77.24023438 55.07177734 77.24023438 C53.84180391 64.9405 50.78050521 54.98161188 43.07177734 45.24023438 C42.59482422 44.62664062 42.11787109 44.01304688 41.62646484 43.38085938 C34.40120968 35.17529321 22.26972575 29.93005701 11.49243164 29.02319336 C-7.37178361 28.21527208 -24.3930814 30.27757327 -37.98291016 44.80273438 Z " fill="#6E4371" transform="translate(482.92822265625,1530.759765625)"/>
<path d="M0 0 C0.7105957 0.0012085 1.42119141 0.00241699 2.15332031 0.00366211 C26.27435437 0.11508194 45.27919817 6.78637291 62.828125 23.67578125 C83.89990368 45.57179617 85.4375 72.02060362 85.4375 101.375 C38.9075 101.375 -7.6225 101.375 -55.5625 101.375 C-49.79815031 130.86896785 -49.79815031 130.86896785 -30.5625 152.375 C-19.77600812 158.85553584 -10.19946857 160.75524019 2.25 160.6875 C3.31226807 160.68258545 4.37453613 160.6776709 5.46899414 160.67260742 C20.92908199 160.44111567 31.21993785 156.18904459 42.98046875 146.33984375 C46.5772965 142.22732387 46.5772965 142.22732387 51.4375 131.375 C61.6675 131.375 71.8975 131.375 82.4375 131.375 C80.37488981 147.87588152 71.56862015 163.28893996 58.49609375 173.72265625 C40.95665468 186.66836874 23.07866915 190.71601962 1.6875 190.8125 C0.39730957 190.82265137 -0.89288086 190.83280273 -2.22216797 190.84326172 C-25.20376674 190.63495156 -46.3094008 182.52447145 -62.77734375 166.34765625 C-81.50549485 146.95041284 -87.98219368 119.70411349 -87.86499023 93.44482422 C-87.22669205 65.61502324 -78.85220739 39.45467325 -58.375 19.7890625 C-41.44334207 5.25605611 -21.99903764 -0.06895449 0 0 Z M-39.75 44.3125 C-47.12809902 53.15100625 -53.5625 65.79903371 -53.5625 77.375 C-18.2525 77.375 17.0575 77.375 53.4375 77.375 C50.55171007 61.50315539 46.28551266 48.06020178 33.0625 37.9375 C11.41509792 23.26537192 -21.27877789 25.48191559 -39.75 44.3125 Z " fill="#6E4371" transform="translate(1308.5625,1530.625)"/>
<path d="M0 0 C1.77639862 -0.00855011 1.77639862 -0.00855011 3.58868408 -0.01727295 C6.07604092 -0.02664839 8.56340977 -0.0332269 11.05078125 -0.03710938 C14.80491293 -0.04681499 18.55849617 -0.07791137 22.3125 -0.109375 C44.75523278 -0.20874247 68.33355577 0.79897116 85.828125 16.703125 C86.570625 17.528125 87.313125 18.353125 88.078125 19.203125 C88.903125 20.09 89.728125 20.976875 90.578125 21.890625 C100.72875559 34.40335202 102.2394748 50.19405254 102.19165039 65.65600586 C102.19179642 66.89573151 102.19194244 68.13545715 102.1920929 69.41275024 C102.1915176 72.79448352 102.18651905 76.17615496 102.17951894 79.5578773 C102.17324711 83.09860599 102.17267858 86.63933559 102.17149353 90.18006897 C102.16839148 96.87700314 102.16019332 103.5739209 102.15014404 110.27084786 C102.13894787 117.89843231 102.13346364 125.52601757 102.12844861 133.1536082 C102.11800972 148.83679158 102.0996783 164.51995236 102.078125 180.203125 C93.498125 180.203125 84.918125 180.203125 76.078125 180.203125 C75.748125 170.963125 75.418125 161.723125 75.078125 152.203125 C73.098125 155.833125 71.118125 159.463125 69.078125 163.203125 C60.03940766 175.71950486 47.01245929 182.20782393 32.05053711 184.79736328 C27.30328218 185.44540745 22.61402287 185.54375336 17.828125 185.515625 C16.82813477 185.51071045 15.82814453 185.5057959 14.79785156 185.50073242 C-3.41515032 185.21477949 -19.36681472 180.01780498 -33.046875 167.703125 C-44.18222818 156.05656798 -47.41112524 140.20717099 -47.27368164 124.63842773 C-46.88433489 110.38079238 -42.95013007 97.66408862 -32.99609375 87.10546875 C-26.0726452 80.75571462 -18.79687591 76.8156981 -9.984375 73.828125 C-9.28207764 73.5894873 -8.57978027 73.35084961 -7.85620117 73.10498047 C3.31267754 69.5955952 14.61860825 68.90964292 26.25390625 69.0078125 C27.54507858 69.0106424 28.83625092 69.01347229 30.16654968 69.01638794 C33.55142379 69.0239192 36.9361183 69.0434732 40.32092285 69.0657959 C43.794002 69.08648484 47.26711099 69.09543823 50.74023438 69.10546875 C57.51960369 69.12673241 64.29885565 69.16073624 71.078125 69.203125 C70.6298255 66.15498951 70.17289409 63.10856984 69.7109375 60.0625 C69.58565674 59.20446777 69.46037598 58.34643555 69.33129883 57.46240234 C67.8035916 47.49159841 64.92622131 40.96254221 56.84765625 34.67578125 C47.54743017 29.73052705 38.0696336 29.80036576 27.7890625 29.91015625 C26.23394178 29.91576289 24.6788157 29.92002793 23.12368774 29.92301941 C19.06301827 29.93438428 15.00267911 29.96377762 10.94213867 29.99713135 C6.78568996 30.02801423 2.62918703 30.04156338 -1.52734375 30.05664062 C-9.65902143 30.08865697 -17.79036886 30.1413547 -25.921875 30.203125 C-25.921875 20.633125 -25.921875 11.063125 -25.921875 1.203125 C-17.21289325 0.53320333 -8.70660257 0.03350098 0 0 Z M-7.76953125 106.05078125 C-12.79632371 112.06564102 -14.92009206 119.49447692 -15.296875 127.265625 C-14.38362041 136.85479821 -11.38324325 144.66741239 -3.84765625 150.92578125 C7.45540291 158.95430669 20.91091478 160.69415929 34.4609375 158.70703125 C46.35992556 156.21752666 55.36712293 151.80377976 63.078125 142.203125 C70.53744441 130.45014856 71.26337988 117.70976097 71.140625 104.140625 C71.13611328 103.17962891 71.13160156 102.21863281 71.12695312 101.22851562 C71.11530206 98.88665078 71.09894525 96.54492319 71.078125 94.203125 C63.46507264 94.12655927 55.85212096 94.07431 48.23876953 94.03833008 C45.6531198 94.02331788 43.06749522 94.00290187 40.48193359 93.97680664 C36.74830896 93.94008955 33.01502334 93.92332226 29.28125 93.91015625 C28.14012756 93.89467239 26.99900513 93.87918854 25.82330322 93.86323547 C12.56868156 93.86050569 1.76910579 96.51214421 -7.76953125 106.05078125 Z " fill="#6E4371" transform="translate(646.921875,1534.796875)"/>
<path d="M0 0 C14.26272439 13.4276188 21.90711778 31.97005044 25.07421875 50.97265625 C25.07421875 59.88265625 25.07421875 68.79265625 25.07421875 77.97265625 C-22.44578125 77.97265625 -69.96578125 77.97265625 -118.92578125 77.97265625 C-116.17480439 99.98047116 -111.83722815 118.02921757 -94.6171875 132.9765625 C-80.08913877 144.02169643 -61.21300758 145.91675141 -43.56445312 143.67236328 C-30.97949686 141.46521613 -18.36250292 136.18180852 -10.30859375 125.91015625 C-6.6912194 120.72705271 -4.57639813 115.93654422 -1.92578125 109.97265625 C5.99421875 109.97265625 13.91421875 109.97265625 22.07421875 109.97265625 C20.65461776 122.7490652 16.47952243 132.32360835 8.07421875 141.97265625 C6.96046875 143.48859375 6.96046875 143.48859375 5.82421875 145.03515625 C-6.06297284 158.96125125 -26.19602237 166.04313424 -43.92578125 167.97265625 C-71.34990361 169.26804408 -96.13342092 165.66726024 -117.30078125 146.59765625 C-136.7954766 128.27496155 -143.80663651 102.21268153 -145.109375 76.32421875 C-145.60173837 51.01094884 -139.43408075 26.58110589 -122.92578125 6.97265625 C-122.47976563 6.38226562 -122.03375 5.791875 -121.57421875 5.18359375 C-109.77049038 -9.93346188 -90.12219564 -18.12939642 -71.55078125 -20.77734375 C-45.12725828 -22.8175781 -20.13444581 -18.10382835 0 0 Z M-103.890625 22.09375 C-112.06443577 31.8415112 -117.92578125 45.17307277 -117.92578125 57.97265625 C-78.98578125 57.97265625 -40.04578125 57.97265625 0.07421875 57.97265625 C-1.39625675 41.79742575 -6.60407645 25.936242 -19.30078125 14.91015625 C-45.9291053 -4.74408293 -81.24763754 -2.34987265 -103.890625 22.09375 Z " fill="#FD9565" transform="translate(1926.92578125,1553.02734375)"/>
<path d="M0 0 C11.55 0 23.1 0 35 0 C41.52235849 19.52197406 48.04224368 39.04476836 54.55757141 58.56908989 C57.5826517 67.63400672 60.6088583 76.69854466 63.63769531 85.76220703 C66.27682097 93.65968462 68.91385504 101.55785689 71.54835224 109.45687973 C72.94409272 113.64148793 74.34089676 117.82573443 75.74020386 122.00915146 C77.05602927 125.94309833 78.3690656 129.87796474 79.67992783 133.81356812 C80.1626413 135.26115629 80.64639068 136.70839949 81.1312294 138.15527725 C81.79084899 140.12424762 82.44679794 142.09440274 83.10180664 144.06491089 C83.47052383 145.16921888 83.83924103 146.27352688 84.21913147 147.41129875 C85 150 85 150 85 152 C87.31 152 89.62 152 92 152 C92.08870361 151.11530029 92.17740723 150.23060059 92.26879883 149.3190918 C93.127787 143.36614501 95.00523687 137.6516649 96.69921875 131.89453125 C97.08678108 130.56440587 97.4738994 129.23415105 97.86061096 127.90377808 C98.69401189 125.03997534 99.53034905 122.17705303 100.36901855 119.31478882 C101.70019866 114.77151105 103.02500322 110.22639062 104.34863281 105.6809082 C105.74899253 100.87291907 107.14974618 96.06504684 108.55264282 91.25779724 C113.65177156 73.78322161 118.71076845 56.29706906 123.76821899 38.81039429 C125.66696766 32.24545611 127.56715339 25.68093401 129.46733093 19.1164093 C131.31174685 12.7443287 133.15584378 6.37215577 135 0 C145.89 0 156.78 0 168 0 C165.54839512 9.80641952 163.07275154 19.47095808 160.1484375 29.125 C159.58250649 31.01140572 159.01657957 32.89781267 158.45078659 34.7842598 C157.84640354 36.79711961 157.24030836 38.8094566 156.63372803 40.82165527 C154.6591436 47.3731065 152.69656908 53.92816017 150.73355484 60.48308563 C150.26265382 62.05545332 149.79163143 63.62778467 149.32049179 65.20008087 C143.07549634 86.04320368 136.91329693 106.91080449 130.75226593 127.77886963 C129.87597798 130.74668778 128.99940492 133.71442158 128.1227417 136.68212891 C126.7344394 141.38194469 125.34653255 146.08187702 123.95903015 150.78192902 C123.44529435 152.52215813 122.9314918 154.26236754 122.4176178 156.00255585 C121.71021698 158.39841838 121.0032345 160.79440394 120.29638672 163.19042969 C120.09183554 163.88301376 119.88728436 164.57559784 119.67653465 165.28916931 C118.42894934 169.52030903 117.21194143 173.758205 116 178 C97.52 178 79.04 178 60 178 C58.50210937 173.56691406 57.00421875 169.13382813 55.4609375 164.56640625 C41.35757255 122.83129672 41.35757255 122.83129672 27.14826965 81.13217163 C26.88277817 80.35636749 26.61728668 79.58056335 26.34375 78.78125 C26.08007126 78.01084381 25.81639252 77.24043762 25.54472351 76.44668579 C23.30322604 69.89420267 21.07255 63.33806163 18.84375 56.78125 C18.48731918 55.7329451 18.13088837 54.6846402 17.76365662 53.60456848 C14.9491643 45.32644609 14.9491643 45.32644609 13.56228638 41.24130249 C12.6061238 38.42491943 11.64904033 35.60885178 10.69140625 32.79296875 C10.38695084 31.8971257 10.08249542 31.00128265 9.76881409 30.07829285 C8.19394757 25.45707495 6.59827426 20.84417924 4.97216797 16.24072266 C4.48259865 14.85376945 4.48259865 14.85376945 3.98313904 13.438797 C3.35967119 11.67724328 2.733388 9.91668271 2.10389709 8.15727234 C0 2.21832762 0 2.21832762 0 0 Z " fill="#6E4371" transform="translate(1029,1537)"/>
<path d="M0 0 C9.53456631 8.11678694 15.06638541 16.45304163 18.125 28.6875 C18.125 32.3175 18.125 35.9475 18.125 39.6875 C10.205 39.6875 2.285 39.6875 -5.875 39.6875 C-6.865 36.0575 -7.855 32.4275 -8.875 28.6875 C-12.84944407 21.03301513 -18.90947461 16.08295286 -27 13.3125 C-41.36890924 8.92941097 -57.33264319 9.38675042 -71.25 15.3125 C-77.42270442 18.80372852 -82.40026514 24.55335162 -84.875 31.1875 C-87.12287237 39.66477029 -86.27407263 47.02502037 -81.875 54.6875 C-75.79239656 62.22218384 -66.08326625 64.85830068 -56.83422852 65.95263672 C-55.4312854 66.09983154 -55.4312854 66.09983154 -54 66.25 C-51.96990233 66.49223783 -49.93995651 66.73575135 -47.91015625 66.98046875 C-46.89969238 67.09825684 -45.88922852 67.21604492 -44.84814453 67.33740234 C-22.35392848 69.98617109 1.28817157 73.70281962 17.125 91.6875 C25.0361569 103.06903965 26.36207599 115.13977783 25.125 128.6875 C22.39010828 143.78672256 13.97759174 154.56181998 1.75390625 163.40234375 C-12.36117367 172.51108991 -28.07765061 175.05567941 -44.55273438 175.00317383 C-46.60861918 175.00002509 -48.66304286 175.02352485 -50.71875 175.04882812 C-69.73922784 175.1400623 -88.48758855 170.61372031 -103.09375 157.73046875 C-113.3017235 147.1495116 -117.875 134.16456528 -117.875 119.6875 C-109.955 119.6875 -102.035 119.6875 -93.875 119.6875 C-92.885 122.6575 -91.895 125.6275 -90.875 128.6875 C-87.36377038 137.14046019 -81.74117284 144.17514102 -73.1484375 147.87890625 C-56.75020068 153.71126883 -35.47385443 154.71073689 -19.30859375 147.55078125 C-10.0783691 142.73038386 -4.18717632 136.62402896 -0.875 126.6875 C-0.26049911 118.75943115 0.25350788 111.1815869 -4.875 104.6875 C-15.93541761 92.42361726 -33.45505268 91.7650664 -48.8125 90.25 C-67.4213857 88.36441637 -88.8322414 84.60257674 -101.875 69.6875 C-110.30006085 59.34501151 -112.31815025 47.58052997 -111.73046875 34.4609375 C-110.35503427 22.0366832 -104.44327891 9.82502654 -94.6640625 1.89453125 C-69.11352446 -17.00641882 -26.08940436 -19.25433781 0 0 Z " fill="#FD9565" transform="translate(2101.875,1545.3125)"/>
<path d="M0 0 C0.86625 0.5775 1.7325 1.155 2.625 1.75 C13.3008206 11.8639353 16.3870723 23.749431 17 38 C8.75 38 0.5 38 -8 38 C-8.66 34.7 -9.32 31.4 -10 28 C-13.42837179 20.13160572 -19.57125915 15.3188089 -27.33203125 12.00390625 C-41.31110083 7.02669068 -58.24563592 7.33493126 -71.890625 13.25390625 C-78.65372802 16.96956315 -82.75722758 21.72805254 -86.3125 28.5 C-88.4819525 36.38891819 -88.61092325 43.78725079 -84.87890625 51.23828125 C-79.61330925 59.15905181 -72.01402005 61.77475378 -63 63.625 C-55.69279052 64.93008323 -48.31352939 65.64310975 -40.9375 66.4375 C-20.52659043 68.65905593 -0.32077794 73.55920073 14.3984375 88.90625 C23.79200335 101.18661901 23.98786553 114.19857341 23 129 C20.84125306 141.53633765 12.66734878 152.37403727 2.53515625 159.80859375 C-13.13020255 170.25965809 -29.67874606 173.60636121 -48.25 173.4375 C-48.97200592 173.43412628 -49.69401184 173.43075256 -50.43789673 173.42727661 C-70.83752886 173.28939363 -89.60144712 170.08166215 -104.81640625 155.31640625 C-115.74604874 143.72199123 -118.42253061 133.51178232 -120 118 C-111.75 118 -103.5 118 -95 118 C-94.46375 119.98 -93.9275 121.96 -93.375 124 C-90.44052415 133.44983306 -85.63421362 140.00903947 -77 145 C-60.02333199 152.55860183 -38.35210495 152.57832148 -21 146 C-12.7196953 141.94171507 -7.02013132 136.12722153 -3.625 127.5625 C-1.02684961 119.59411409 -1.32751147 112.63274668 -5 105 C-7.87677223 100.7242495 -10.78942216 98.67303558 -15.375 96.375 C-17.02628906 95.52035156 -17.02628906 95.52035156 -18.7109375 94.6484375 C-30.14405369 89.76713962 -43.27959074 89.10950858 -55.53833008 87.92138672 C-73.7175496 86.13035147 -91.17528795 81.15159544 -104.09375 67.390625 C-113.03971944 56.17149939 -114.19220524 42.79726019 -113 29 C-111.41470238 19.99133267 -107.80839025 12.99985492 -102 6 C-101.49984375 5.37609375 -100.9996875 4.7521875 -100.484375 4.109375 C-76.83720821 -22.40411504 -26.47206498 -19.45669372 0 0 Z " fill="#FD9565" transform="translate(2419,1547)"/>
<path d="M0 0 C10.23 0 20.46 0 31 0 C31 17.82 31 35.64 31 54 C51.46 54 71.92 54 93 54 C93 61.92 93 69.84 93 78 C92 79 92 79 89.56394958 79.12025452 C88.48251175 79.11803391 87.40107391 79.11581329 86.28686523 79.11352539 C85.0656749 79.11344986 83.84448456 79.11337433 82.58628845 79.11329651 C81.24372314 79.10818911 79.90115825 79.10297311 78.55859375 79.09765625 C77.19238842 79.09579199 75.82618243 79.09436813 74.4599762 79.09336853 C70.85798305 79.08954394 67.25603 79.07971417 63.65405273 79.06866455 C59.98096255 79.05844916 56.30786591 79.05387064 52.63476562 79.04882812 C45.42315877 79.03809184 38.211585 79.02101614 31 79 C31.06135624 91.97892491 31.13856688 104.95765114 31.23571491 117.93636036 C31.2803387 123.96366334 31.31961247 129.99089997 31.34643555 136.01831055 C31.37254815 141.84100153 31.41300687 147.66343608 31.46318626 153.48596764 C31.47980123 155.70133957 31.4913488 157.91675579 31.49761391 160.13218117 C31.5073135 163.24830287 31.53544267 166.36377639 31.56762695 169.47973633 C31.56619186 170.38461288 31.56475677 171.28948944 31.5632782 172.2217865 C31.71036263 182.36848578 33.70493023 190.82556946 40.8828125 198.1875 C47.67238726 203.99997728 56.13470221 204.13293379 64.6796875 204.31640625 C65.49245148 204.33718735 66.30521545 204.35796844 67.14260864 204.37937927 C69.71999257 204.44437579 72.29747194 204.50352593 74.875 204.5625 C76.63021791 204.60573277 78.38542643 204.64934852 80.140625 204.69335938 C84.42698727 204.800721 88.7134295 204.90016412 93 205 C93 214.57 93 224.14 93 234 C86.98962353 234.06940982 80.98067493 234.12897858 74.97021484 234.16479492 C72.93175507 234.17974813 70.89332671 234.20011811 68.85498047 234.22631836 C49.14605107 234.47304281 29.10244785 233.41050303 14 219 C-0.92423522 202.9513361 -0.43557743 181.69961751 -0.29296875 161.2265625 C-0.28736343 158.84760813 -0.28309777 156.46865026 -0.28010559 154.08969116 C-0.2687305 147.87221471 -0.23932739 141.65495335 -0.20599365 135.43756104 C-0.17513354 129.07559111 -0.16156638 122.71358594 -0.14648438 116.3515625 C-0.11444987 103.90093266 -0.06174282 91.45051799 0 79 C-10.23 79 -20.46 79 -31 79 C-31 70.75 -31 62.5 -31 54 C-20.77 54 -10.54 54 0 54 C0 36.18 0 18.36 0 0 Z " fill="#6E4371" transform="translate(812,1483)"/>
<path d="M0 0 C8.25 0 16.5 0 25 0 C25 18.15 25 36.3 25 55 C46.12 55 67.24 55 89 55 C89 61.6 89 68.2 89 75 C67.88 75 46.76 75 25 75 C25.0908821 94.28233805 25.0908821 94.28233805 25.20898438 113.56445312 C25.26322024 121.43398212 25.31433401 129.30344123 25.34643555 137.1730957 C25.37253021 143.52096782 25.41297663 149.86860401 25.46318626 156.21632957 C25.47981326 158.63266238 25.49135338 161.04903596 25.49761391 163.46541786 C25.50730018 166.86171566 25.5354144 170.2574155 25.56762695 173.65356445 C25.56619186 174.64259766 25.56475677 175.63163086 25.5632782 176.65063477 C25.68756709 185.97544616 27.17814721 194.99287404 33.26953125 202.34765625 C40.42320472 209.17836478 50.64216059 210.27584825 60.09375 210.4140625 C60.92588013 210.43342865 61.75801025 210.4527948 62.61535645 210.4727478 C65.24347042 210.53198326 67.87162956 210.5787021 70.5 210.625 C72.29428873 210.6632315 74.08856013 210.70228615 75.8828125 210.7421875 C80.25511224 210.83917012 84.6272529 210.91918074 89 211 C89 218.59 89 226.18 89 234 C83.02588463 234.09270179 77.05434446 234.17206968 71.08007812 234.21972656 C69.05525172 234.23962815 67.03048111 234.26675946 65.00585938 234.30175781 C46.41889106 234.61460777 28.34525497 233.53545673 13.75 220.5 C-1.7024587 203.71488573 -0.43778265 180.52400229 -0.29296875 159.27734375 C-0.2873608 156.83541629 -0.28309639 154.39348541 -0.28010559 151.95155334 C-0.26875116 145.58123149 -0.23936668 139.21112081 -0.20599365 132.84088135 C-0.17508814 126.31777807 -0.16155683 119.79464005 -0.14648438 113.27148438 C-0.11448649 100.51421607 -0.06179719 87.75715878 0 75 C-10.56 75 -21.12 75 -32 75 C-32 68.4 -32 61.8 -32 55 C-21.44 55 -10.88 55 0 55 C0 36.85 0 18.7 0 0 Z " fill="#FE9565" transform="translate(2180,1483)"/>
<path d="M0 0 C3.42375 0.04125 6.8475 0.0825 10.375 0.125 C10.375 9.695 10.375 19.265 10.375 29.125 C7.549375 29.228125 4.72375 29.33125 1.8125 29.4375 C-14.08982888 30.22770326 -29.75422509 32.6573921 -42.0625 43.6875 C-51.89088828 54.5515679 -54.91277185 67.955726 -54.94384766 82.15258789 C-54.95891609 83.74926804 -54.95891609 83.74926804 -54.97428894 85.37820435 C-55.00497846 88.86801656 -55.02211649 92.35775257 -55.0390625 95.84765625 C-55.05778558 98.27860666 -55.07735984 100.70955065 -55.0977478 103.14048767 C-55.14895437 109.51736659 -55.1886415 115.89426655 -55.22589111 122.27124023 C-55.26600278 128.78699907 -55.3170624 135.30267124 -55.3671875 141.81835938 C-55.46381096 154.58718459 -55.54724652 167.35604593 -55.625 180.125 C-66.515 180.125 -77.405 180.125 -88.625 180.125 C-88.625 121.385 -88.625 62.645 -88.625 2.125 C-80.045 2.125 -71.465 2.125 -62.625 2.125 C-62.13 21.925 -62.13 21.925 -61.625 42.125 C-59.975 38.165 -58.325 34.205 -56.625 30.125 C-49.24361335 16.4854812 -39.35954257 8.16073425 -24.62109375 2.94921875 C-16.31236702 0.66350644 -8.61217149 -0.14828209 0 0 Z " fill="#6E4371" transform="translate(365.625,1534.875)"/>
<path d="M0 0 C20.13 0 40.26 0 61 0 C61 58.74 61 117.48 61 178 C50.11 178 39.22 178 28 178 C28 127.84 28 77.68 28 26 C18.76 26 9.52 26 0 26 C0 17.42 0 8.84 0 0 Z " fill="#6E4371" transform="translate(930,1537)"/>
<path d="M0 0 C4.96918703 3.20926663 8.04415169 6.77645164 10.4375 12.1875 C11.65543514 20.3070676 10.90466568 27.26170504 6 33.9375 C1.14197392 38.79552608 -4.22894106 40.01334838 -10.9375 40.25 C-17.92897598 40.09061985 -24.04867084 38.0302957 -29 32.9375 C-33.03629933 26.53509416 -32.90093618 19.30647796 -32 11.9375 C-29.93059959 6.18032194 -26.36158965 2.85140742 -21 -0.0625 C-14.80238581 -2.1283714 -6.20052568 -2.27631911 0 0 Z " fill="#6E4371" transform="translate(978,1469.0625)"/>
</svg>
